<svg xmlns="http://www.w3.org/2000/svg" viewBox="0 0 200 400" width="200" height="400">
  <!-- Mobile Frame -->
  <rect x="0" y="0" width="200" height="400" rx="20" ry="20" fill="none" stroke="#333" stroke-width="2"/>

  <!-- Mobile Top Bar with Inner Stroke -->
  <rect x="0" y="0" width="200" height="30" fill="#fff" stroke="#333" stroke-width="2" stroke-linejoin="round"/>
  
  <!-- Mobile Buttons -->
  <circle cx="15" cy="15" r="5" fill="#ff5f57"> <!-- Red -->
    <animate attributeName="fill" values="#ff5f57;#ff5f57;#ff5f57" dur="2s" repeatCount="indefinite" />
  </circle>
  <circle cx="35" cy="15" r="5" fill="#ffbd2e"> <!-- Yellow -->
    <animate attributeName="fill" values="#ffbd2e;#ffbd2e;#ffbd2e" dur="2s" repeatCount="indefinite" />
  </circle>
  <circle cx="55" cy="15" r="5" fill="#28c840"> <!-- Green -->
    <animate attributeName="fill" values="#28c840;#28c840;#28c840" dur="2s" repeatCount="indefinite" />
  </circle>

  <!-- Profile Section (Top) with Circle to Square Animation -->
  <rect x="70" y="45" width="60" height="60" fill="#b0b0b0" rx="30">
    <animate attributeName="rx" from="30" to="0" dur="2s" repeatCount="indefinite" values="30;0;30" />
  </rect>

  <!-- Placeholder Text Lines (Profile Name and Details) -->
  <rect x="70" y="110" width="100" height="10" fill="#b0b0b0" rx="5">
    <animate attributeName="width" from="100" to="90" dur="2s" repeatCount="indefinite" values="100;90;100" />
  </rect>
  <rect x="70" y="130" width="80" height="10" fill="#b0b0b0" rx="5" />

  <!-- Sidebar Text Lines with Width Animation -->
  <rect x="20" y="160" width="150" height="10" fill="#b0b0b0" rx="5">
    <animate attributeName="width" from="150" to="160" dur="2s" repeatCount="indefinite" values="150;160;150" />
  </rect>
  <rect x="20" y="180" width="130" height="10" fill="#b0b0b0" rx="5" />
  <rect x="20" y="200" width="100" height="10" fill="#b0b0b0" rx="5" />

  <!-- Content Boxes with Shape Transformation -->
  <rect x="20" y="230" width="160" height="30" fill="#b0b0b0" rx="15">
    <animate attributeName="rx" from="15" to="0" dur="1.5s" repeatCount="indefinite" values="15;0;15" />
  </rect>
  <rect x="20" y="270" width="160" height="30" fill="#b0b0b0" rx="15">
    <animate attributeName="rx" from="15" to="0" dur="1.5s" repeatCount="indefinite" values="15;0;15" />
  </rect>
  <rect x="20" y="310" width="160" height="30" fill="#b0b0b0" rx="15">
    <animate attributeName="rx" from="15" to="0" dur="1.5s" repeatCount="indefinite" values="15;0;15" />
  </rect>
</svg>
